<?xml version="1.0" encoding="UTF-8" standalone="no"?>
<!DOCTYPE svg PUBLIC "-//W3C//DTD SVG 1.1//EN" "http://www.w3.org/Graphics/SVG/1.1/DTD/svg11.dtd">
<svg width="100%" height="100%" viewBox="0 0 180 19" version="1.1" xmlns="http://www.w3.org/2000/svg" xmlns:xlink="http://www.w3.org/1999/xlink" xml:space="preserve" xmlns:serif="http://www.serif.com/" style="fill-rule:evenodd;clip-rule:evenodd;stroke-linejoin:round;stroke-miterlimit:2;">
    <g>
        <path d="M4.645,8.229L11.498,15.082C12.219,15.803 12.219,16.972 11.498,17.693C10.778,18.413 9.608,18.413 8.888,17.693L2.035,10.84C2.759,11.534 3.905,11.521 4.616,10.811C5.327,10.099 5.34,8.953 4.645,8.229Z" style="fill:rgb(62,23,254);"/>
        <path d="M3.274,7.618C3.741,7.617 4.214,7.797 4.574,8.158L4.645,8.229C5.34,8.953 5.327,10.099 4.616,10.811C3.905,11.521 2.759,11.534 2.035,10.84L1.963,10.768C1.603,10.408 1.423,9.935 1.424,9.468C1.423,8.998 1.604,8.523 1.966,8.161C2.329,7.798 2.804,7.617 3.274,7.618Z" style="fill:rgb(255,162,0);"/>
        <path d="M12.127,14.332L5.274,7.479C4.554,6.758 4.554,5.589 5.274,4.868C5.994,4.148 7.164,4.148 7.885,4.868L14.737,11.721C14.014,11.026 12.868,11.04 12.157,11.751C11.446,12.462 11.432,13.608 12.127,14.332Z" style="fill:rgb(62,23,254);"/>
        <path d="M12.127,14.332C11.432,13.608 11.446,12.462 12.157,11.751C12.868,11.04 14.014,11.026 14.737,11.721L14.809,11.793C15.169,12.153 15.349,12.625 15.348,13.093C15.349,13.563 15.168,14.038 14.806,14.4C14.444,14.762 13.968,14.944 13.498,14.942C13.031,14.944 12.559,14.763 12.199,14.403L12.127,14.332Z" style="fill:rgb(255,162,0);"/>
        <path d="M18.056,11.146C18.776,10.425 18.776,9.255 18.056,8.535L11.132,1.61C10.411,0.89 9.241,0.89 8.521,1.61C7.801,2.331 7.801,3.501 8.521,4.221L15.445,11.146C16.166,11.866 17.336,11.866 18.056,11.146Z" style="fill:rgb(17,109,254);"/>
        <path d="M149.819,18.233C149.939,18.233 150.036,18.136 150.036,18.017L150.036,1.287C150.036,1.167 149.939,1.07 149.819,1.07C149.7,1.07 149.602,1.167 149.602,1.287L149.602,18.017C149.602,18.136 149.7,18.233 149.819,18.233Z" style="fill:rgb(17,109,254);"/>
        <path d="M29.636,3.917L29.636,5.392L24.369,5.392L24.369,9.041L28.985,9.041L28.985,10.516L24.369,10.516L24.369,15.387L22.83,15.387L22.83,3.917L29.636,3.917Z" style="fill:rgb(44,62,80);fill-rule:nonzero;"/>
        <path d="M35.67,12.61L31.259,12.61L30.038,15.625L28.515,15.625L33.528,3.679L33.623,3.679L38.636,15.625L36.86,15.625L35.67,12.61ZM35.146,11.278L33.512,7.089L31.815,11.278L35.146,11.278Z" style="fill:rgb(44,62,80);fill-rule:nonzero;"/>
        <path d="M47.234,14.53C46.864,14.773 46.396,14.999 45.83,15.204C45.264,15.41 44.648,15.514 43.982,15.514C42.808,15.514 41.774,15.254 40.88,14.736C39.986,14.218 39.299,13.52 38.818,12.642C38.337,11.764 38.096,10.797 38.096,9.739C38.096,8.607 38.339,7.589 38.826,6.685C39.312,5.781 39.986,5.073 40.848,4.559C41.71,4.046 42.686,3.79 43.775,3.79C44.421,3.79 45.023,3.874 45.584,4.043C46.145,4.213 46.647,4.435 47.091,4.71L46.472,6.153C45.595,5.561 44.711,5.265 43.823,5.265C43.083,5.265 42.398,5.461 41.769,5.852C41.139,6.243 40.637,6.775 40.261,7.446C39.886,8.118 39.698,8.856 39.698,9.66C39.698,10.485 39.87,11.23 40.214,11.896C40.558,12.563 41.049,13.084 41.689,13.459C42.329,13.835 43.067,14.022 43.902,14.022C44.928,14.022 45.822,13.731 46.584,13.15L47.234,14.53Z" style="fill:rgb(44,62,80);fill-rule:nonzero;"/>
        <path d="M55.47,3.917L55.47,5.392L52.392,5.392L52.392,15.387L50.853,15.387L50.853,5.392L47.855,5.392L47.855,3.917L55.47,3.917Z" style="fill:rgb(44,62,80);fill-rule:nonzero;"/>
        <path d="M54.929,9.66C54.929,8.612 55.194,7.639 55.723,6.74C56.251,5.841 56.963,5.125 57.856,4.591C58.75,4.057 59.726,3.79 60.783,3.79C61.83,3.79 62.803,4.057 63.702,4.591C64.6,5.125 65.318,5.841 65.852,6.74C66.386,7.639 66.653,8.612 66.653,9.66C66.653,10.717 66.389,11.696 65.86,12.595C65.331,13.493 64.614,14.205 63.71,14.728C62.806,15.252 61.83,15.514 60.783,15.514C59.726,15.514 58.747,15.254 57.848,14.736C56.949,14.218 56.238,13.512 55.715,12.618C55.191,11.725 54.929,10.738 54.929,9.66ZM56.516,9.675C56.516,10.458 56.706,11.183 57.087,11.849C57.468,12.515 57.989,13.044 58.65,13.435C59.311,13.827 60.032,14.022 60.815,14.022C61.598,14.022 62.314,13.829 62.965,13.443C63.615,13.057 64.128,12.528 64.503,11.857C64.878,11.185 65.067,10.453 65.067,9.66C65.067,8.866 64.876,8.131 64.496,7.454C64.114,6.777 63.597,6.243 62.941,5.852C62.285,5.461 61.566,5.265 60.783,5.265C60.001,5.265 59.282,5.463 58.626,5.86C57.97,6.257 57.454,6.793 57.079,7.47C56.704,8.147 56.516,8.882 56.516,9.675Z" style="fill:rgb(44,62,80);fill-rule:nonzero;"/>
        <path d="M74.169,15.387L71.472,11.151C71.387,11.162 71.26,11.167 71.091,11.167L69.394,11.167L69.394,15.387L67.855,15.387L67.855,3.917L70.917,3.917C71.699,3.917 72.397,4.054 73.011,4.329C73.624,4.604 74.105,5.009 74.454,5.543C74.803,6.077 74.978,6.719 74.978,7.47C74.978,8.179 74.822,8.829 74.51,9.422C74.198,10.014 73.719,10.463 73.074,10.77L75.962,15.387L74.169,15.387ZM71.059,9.675C71.884,9.675 72.479,9.459 72.844,9.025C73.209,8.591 73.392,8.094 73.392,7.534C73.392,7.195 73.315,6.862 73.162,6.534C73.008,6.206 72.765,5.934 72.432,5.717C72.099,5.5 71.678,5.392 71.17,5.392L69.394,5.392L69.394,9.675L71.059,9.675Z" style="fill:rgb(44,62,80);fill-rule:nonzero;"/>
        <path d="M85.511,3.917L81.212,11.563L81.212,15.387L79.673,15.387L79.673,11.563L75.421,3.917L77.325,3.917L80.482,9.818L83.623,3.917L85.511,3.917Z" style="fill:rgb(44,62,80);fill-rule:nonzero;"/>
        <path d="M95.817,6.606C94.801,6.045 93.918,5.765 93.167,5.765C92.66,5.765 92.266,5.865 91.985,6.066C91.705,6.267 91.565,6.569 91.565,6.97C91.565,7.341 91.769,7.666 92.176,7.946C92.583,8.226 93.125,8.493 93.802,8.747C94.352,8.948 94.823,9.178 95.214,9.437C95.605,9.697 95.93,10.054 96.19,10.508C96.449,10.964 96.578,11.54 96.578,12.238C96.578,12.84 96.422,13.398 96.11,13.911C95.798,14.424 95.341,14.831 94.738,15.133C94.135,15.434 93.416,15.585 92.58,15.585C91.882,15.585 91.19,15.482 90.502,15.276C89.815,15.069 89.175,14.755 88.582,14.332L89.598,12.539C90,12.835 90.46,13.078 90.978,13.269C91.496,13.459 91.962,13.554 92.374,13.554C92.861,13.554 93.284,13.451 93.643,13.245C94.003,13.039 94.183,12.703 94.183,12.238C94.183,11.635 93.617,11.111 92.485,10.667C91.819,10.403 91.264,10.149 90.819,9.905C90.375,9.662 89.992,9.313 89.669,8.858C89.347,8.404 89.185,7.832 89.185,7.145C89.185,6.14 89.516,5.331 90.177,4.718C90.838,4.104 91.718,3.771 92.818,3.718C93.686,3.718 94.41,3.816 94.992,4.012C95.573,4.207 96.139,4.485 96.689,4.845L95.817,6.606Z" style="fill:rgb(44,62,80);fill-rule:nonzero;"/>
        <path d="M95.817,6.606C94.801,6.045 93.918,5.765 93.167,5.765C92.66,5.765 92.266,5.865 91.985,6.066C91.705,6.267 91.565,6.569 91.565,6.97C91.565,7.341 91.769,7.666 92.176,7.946C92.583,8.226 93.125,8.493 93.802,8.747C94.352,8.948 94.823,9.178 95.214,9.437C95.605,9.697 95.93,10.054 96.19,10.508C96.449,10.964 96.578,11.54 96.578,12.238C96.578,12.84 96.422,13.398 96.11,13.911C95.798,14.424 95.341,14.831 94.738,15.133C94.135,15.434 93.416,15.585 92.58,15.585C91.882,15.585 91.19,15.482 90.502,15.276C89.815,15.069 89.175,14.755 88.582,14.332L89.598,12.539C90,12.835 90.46,13.078 90.978,13.269C91.496,13.459 91.962,13.554 92.374,13.554C92.861,13.554 93.284,13.451 93.643,13.245C94.003,13.039 94.183,12.703 94.183,12.238C94.183,11.635 93.617,11.111 92.485,10.667C91.819,10.403 91.264,10.149 90.819,9.905C90.375,9.662 89.992,9.313 89.669,8.858C89.347,8.404 89.185,7.832 89.185,7.145C89.185,6.14 89.516,5.331 90.177,4.718C90.838,4.104 91.718,3.771 92.818,3.718C93.686,3.718 94.41,3.816 94.992,4.012C95.573,4.207 96.139,4.485 96.689,4.845L95.817,6.606Z" style="fill:none;stroke:rgb(43,61,79);stroke-width:0.61px;"/>
        <path d="M107.753,3.813L107.753,6.034L102.09,6.034L102.09,8.525L107.103,8.525L107.103,10.746L102.09,10.746L102.09,13.269L107.975,13.269L107.975,15.49L99.789,15.49L99.789,3.813L107.753,3.813Z" style="fill:rgb(44,62,80);fill-rule:nonzero;"/>
        <path d="M107.753,3.813L107.753,6.034L102.09,6.034L102.09,8.525L107.103,8.525L107.103,10.746L102.09,10.746L102.09,13.269L107.975,13.269L107.975,15.49L99.789,15.49L99.789,3.813L107.753,3.813Z" style="fill:none;stroke:rgb(43,61,79);stroke-width:0.61px;"/>
        <path d="M121.243,3.805L121.243,15.958L121.18,15.958L113.01,8.581L113.057,15.482L110.725,15.482L110.725,3.345L110.82,3.345L118.975,10.834L118.927,3.805L121.243,3.805Z" style="fill:rgb(44,62,80);fill-rule:nonzero;"/>
        <path d="M121.243,3.805L121.243,15.958L121.18,15.958L113.01,8.581L113.057,15.482L110.725,15.482L110.725,3.345L110.82,3.345L118.975,10.834L118.927,3.805L121.243,3.805Z" style="fill:none;stroke:rgb(43,61,79);stroke-width:0.61px;"/>
        <path d="M131.228,6.606C130.212,6.045 129.328,5.765 128.578,5.765C128.071,5.765 127.677,5.865 127.396,6.066C127.116,6.267 126.976,6.569 126.976,6.97C126.976,7.341 127.179,7.666 127.587,7.946C127.994,8.226 128.535,8.493 129.213,8.747C129.763,8.948 130.233,9.178 130.625,9.437C131.016,9.697 131.341,10.054 131.6,10.508C131.86,10.964 131.989,11.54 131.989,12.238C131.989,12.84 131.833,13.398 131.521,13.911C131.209,14.424 130.752,14.831 130.149,15.133C129.546,15.434 128.826,15.585 127.991,15.585C127.293,15.585 126.6,15.482 125.913,15.276C125.225,15.069 124.586,14.755 123.993,14.332L125.009,12.539C125.411,12.835 125.871,13.078 126.389,13.269C126.907,13.459 127.373,13.554 127.785,13.554C128.272,13.554 128.695,13.451 129.054,13.245C129.414,13.039 129.593,12.703 129.593,12.238C129.593,11.635 129.028,11.111 127.896,10.667C127.23,10.403 126.674,10.149 126.23,9.905C125.786,9.662 125.403,9.313 125.08,8.858C124.757,8.404 124.596,7.832 124.596,7.145C124.596,6.14 124.927,5.331 125.588,4.718C126.249,4.104 127.129,3.771 128.229,3.718C129.095,3.718 129.821,3.816 130.403,4.012C130.983,4.207 131.55,4.485 132.1,4.845L131.228,6.606Z" style="fill:rgb(44,62,80);fill-rule:nonzero;"/>
        <path d="M131.228,6.606C130.212,6.045 129.328,5.765 128.578,5.765C128.071,5.765 127.677,5.865 127.396,6.066C127.116,6.267 126.976,6.569 126.976,6.97C126.976,7.341 127.179,7.666 127.587,7.946C127.994,8.226 128.535,8.493 129.213,8.747C129.763,8.948 130.233,9.178 130.625,9.437C131.016,9.697 131.341,10.054 131.6,10.508C131.86,10.964 131.989,11.54 131.989,12.238C131.989,12.84 131.833,13.398 131.521,13.911C131.209,14.424 130.752,14.831 130.149,15.133C129.546,15.434 128.826,15.585 127.991,15.585C127.293,15.585 126.6,15.482 125.913,15.276C125.225,15.069 124.586,14.755 123.993,14.332L125.009,12.539C125.411,12.835 125.871,13.078 126.389,13.269C126.907,13.459 127.373,13.554 127.785,13.554C128.272,13.554 128.695,13.451 129.054,13.245C129.414,13.039 129.593,12.703 129.593,12.238C129.593,11.635 129.028,11.111 127.896,10.667C127.23,10.403 126.674,10.149 126.23,9.905C125.786,9.662 125.403,9.313 125.08,8.858C124.757,8.404 124.596,7.832 124.596,7.145C124.596,6.14 124.927,5.331 125.588,4.718C126.249,4.104 127.129,3.771 128.229,3.718C129.095,3.718 129.821,3.816 130.403,4.012C130.983,4.207 131.55,4.485 132.1,4.845L131.228,6.606Z" style="fill:none;stroke:rgb(43,61,79);stroke-width:0.61px;"/>
        <path d="M142.814,3.813L142.814,6.034L137.15,6.034L137.15,8.525L142.164,8.525L142.164,10.746L137.15,10.746L137.15,13.269L143.036,13.269L143.036,15.49L134.85,15.49L134.85,3.813L142.814,3.813Z" style="fill:rgb(44,62,80);fill-rule:nonzero;"/>
        <path d="M142.814,3.813L142.814,6.034L137.15,6.034L137.15,8.525L142.164,8.525L142.164,10.746L137.15,10.746L137.15,13.269L143.036,13.269L143.036,15.49L134.85,15.49L134.85,3.813L142.814,3.813Z" style="fill:none;stroke:rgb(43,61,79);stroke-width:0.61px;"/>
        <path d="M158.3,14.254L155.769,10.339C155.579,10.373 155.338,10.391 155.048,10.391L153.551,10.391L153.551,14.254L152.884,14.254L152.884,5.049L155.089,5.049C155.597,5.049 156.084,5.144 156.552,5.334C157.019,5.524 157.4,5.814 157.695,6.203C157.99,6.592 158.137,7.076 158.137,7.655C158.137,8.217 158.001,8.725 157.729,9.178C157.457,9.632 157.035,9.963 156.463,10.17L159.076,14.254L158.3,14.254ZM155.007,9.781C155.887,9.781 156.515,9.574 156.892,9.159C157.268,8.744 157.457,8.251 157.457,7.681C157.457,7.318 157.364,6.981 157.178,6.67C156.992,6.358 156.726,6.112 156.382,5.931C156.037,5.749 155.638,5.658 155.184,5.658L153.551,5.658L153.551,9.781L155.007,9.781Z" style="fill:rgb(17,62,80);fill-rule:nonzero;"/>
        <path d="M166.22,5.049L166.22,5.658L161.471,5.658L161.471,9.457L165.676,9.457L165.676,10.054L161.471,10.054L161.471,14.254L160.804,14.254L160.804,5.049L166.22,5.049Z" style="fill:rgb(17,62,80);fill-rule:nonzero;"/>
        <rect x="167.976" y="5.049" width="0.666" height="9.205" style="fill:rgb(17,62,80);fill-rule:nonzero;"/>
        <path d="M171.024,5.049L173.405,5.049C174.584,5.049 175.562,5.278 176.338,5.736C177.113,6.194 177.68,6.778 178.039,7.486C178.397,8.195 178.576,8.934 178.576,9.703C178.576,10.602 178.361,11.398 177.93,12.089C177.499,12.781 176.923,13.314 176.202,13.69C175.48,14.066 174.702,14.254 173.868,14.254L171.024,14.254L171.024,5.049ZM173.691,13.645C174.471,13.645 175.181,13.483 175.82,13.159C176.46,12.835 176.966,12.372 177.338,11.771C177.71,11.171 177.896,10.468 177.896,9.665C177.896,8.947 177.726,8.284 177.385,7.674C177.045,7.066 176.544,6.579 175.882,6.216C175.219,5.853 174.426,5.671 173.5,5.671L171.69,5.671L171.69,13.645L173.691,13.645Z" style="fill:rgb(17,62,80);fill-rule:nonzero;"/>
    </g>
</svg>
