<?xml version="1.0" encoding="utf-8"?>
<!-- Generator: Adobe Illustrator 20.1.0, SVG Export Plug-In . SVG Version: 6.00 Build 0)  -->
<svg version="1.1" id="Layer_1" xmlns="http://www.w3.org/2000/svg" xmlns:xlink="http://www.w3.org/1999/xlink" x="0px" y="0px"
	 viewBox="0 0 150 150" style="enable-background:new 0 0 150 150;" xml:space="preserve">
<style type="text/css">
	.st0{fill:#000006;}
	.st1{fill:#FF0000;}
</style>
<g>
	<path class="st0" d="M116.3,89.1c1.1-0.1,1.6,0,2,0.1c1.2,0.3,1.6,1.5,1.6,2.8c0,0.4-0.1,1.8-0.8,2.5c-0.6,0.6-1.3,0.6-2.1,0.6
		c-0.2,0-0.5,0-0.8,0V89.1z M114.4,96.6h2.8c0.9,0,1.3,0,1.6-0.1c1.7-0.3,3.2-1.7,3.2-4.5c0-1.3-0.4-2.7-1.5-3.5
		c-1.1-0.8-2.6-0.8-3.1-0.8l-3,0L114.4,96.6L114.4,96.6z M104.3,87.6V93c0,0.8,0,1.5,0.5,2.2c0.8,1.3,2.5,1.5,3.4,1.5
		c1.8,0,3.9-0.9,3.9-3.5v-5.6h-1.9V93c0,0.9-0.1,1.3-0.3,1.5c-0.5,0.8-1.4,0.8-1.7,0.8c-1.9,0-1.9-1.2-1.9-2.2v-5.5L104.3,87.6
		L104.3,87.6z M95.8,92.2c0-1,0.1-2,0.7-2.6c0.4-0.5,0.9-0.8,1.7-0.8c0.9,0,1.7,0.5,2,1.6c0.2,0.5,0.2,1.2,0.2,1.6
		c0,1.4-0.3,2.1-0.6,2.6c-0.4,0.6-0.9,0.8-1.7,0.8c-0.9,0-1.3-0.3-1.6-0.7C96,94,95.8,93,95.8,92.2 M93.8,92.2
		c0,0.8,0.1,2.3,1.1,3.3c0.8,0.9,2,1.2,3.2,1.2c0.7,0,2.2-0.2,3.2-1.3c0.7-0.8,1.1-2.2,1.1-3.5c0-0.9-0.2-2.3-1.1-3.4
		c-0.9-1-2.2-1.2-3.1-1.2C94.9,87.4,93.8,89.8,93.8,92.2 M87.4,96.6h5.8V95h-3.8v-7.4h-2V96.6z M85.6,90.5c0-1.8-1.4-3-3.3-3
		c-2.5,0-4.1,1.9-4.1,4.7c0,2.2,1,4.5,4.1,4.5c0.8,0,1.8-0.2,2.6-1c0.7-0.7,0.8-1.6,0.8-2.1h-2c0,1.2-0.8,1.7-1.6,1.7
		c-1.9,0-1.9-2.5-1.9-3.1c0-1.8,0.6-3.3,2-3.3c1.3,0,1.4,1.3,1.5,1.6L85.6,90.5L85.6,90.5z M65.5,93.7c0,0.9,0,3.1,3.5,3.1
		c2.5,0,3.8-1.3,3.8-2.9c0-1.7-1.5-2.2-3.1-2.5c-1.3-0.3-1.9-0.5-1.9-1.3c0-0.7,0.6-1.2,1.5-1.2c1.3,0,1.4,1.1,1.5,1.4h1.8
		c0-0.3,0-1-0.5-1.7c-0.7-0.8-1.8-1.1-2.7-1.1c-2.5,0-3.5,1.3-3.5,2.8c0,1.5,1.2,2.2,3.3,2.7c1.1,0.3,1.7,0.4,1.7,1.2
		c0,0.8-0.7,1.3-1.7,1.3c-1.7,0-1.6-1.3-1.6-1.7L65.5,93.7L65.5,93.7z M57.9,96.6H64v-1.5h-4.2v-2.4h3.8v-1.5h-3.8v-2.1h4.1v-1.5h-6
		V96.6z M50.4,96.6h5.8V95h-3.8v-7.4h-2V96.6z M43.2,93.2l1.3-3.8l1.2,3.8H43.2z M43.4,87.6l-3.2,9H42l0.7-1.9h3.5l0.6,1.9h1.9
		l-3.1-9H43.4z M31.8,93.7c0,0.9,0,3.1,3.5,3.1c2.5,0,3.8-1.3,3.8-2.9c0-1.7-1.5-2.2-3.1-2.5c-1.3-0.3-1.9-0.5-1.9-1.3
		c0-0.7,0.6-1.2,1.5-1.2c1.3,0,1.4,1.1,1.5,1.4h1.8c0-0.3,0-1-0.5-1.7c-0.7-0.8-1.8-1.1-2.7-1.1c-2.5,0-3.5,1.3-3.5,2.8
		c0,1.5,1.2,2.2,3.3,2.7c1.1,0.3,1.7,0.4,1.7,1.2c0,0.8-0.7,1.3-1.7,1.3c-1.7,0-1.6-1.3-1.6-1.7L31.8,93.7L31.8,93.7z"/>
	<g>
		<rect x="10" y="76.7" width="130" height="0.8"/>
	</g>
	<path class="st1" d="M130,54.5l0.3-0.1l0-0.1l-0.1-0.2c-0.1,0-0.1,0-0.3,0h-0.1v0.4L130,54.5L130,54.5z M129.9,53.8
		c0.2,0,0.3,0,0.4,0c0.3,0.1,0.3,0.3,0.3,0.4l0,0.1c0,0.1-0.1,0.2-0.2,0.3l-0.1,0l0.3,0.6h-0.3l-0.3-0.6h-0.2v0.6h-0.3v-1.5H129.9z
		 M130,56c0.7,0,1.3-0.6,1.3-1.4c0-0.8-0.6-1.4-1.3-1.4s-1.3,0.6-1.3,1.4C128.7,55.4,129.3,56,130,56 M129,54.6c0-0.6,0.5-1.1,1-1.1
		c0.6,0,1,0.5,1,1.1c0,0.6-0.5,1.1-1,1.1S129,55.2,129,54.6"/>
	<path class="st1" d="M118.6,65.2c-2.1,0-3.8-1.4-4.3-3.4h11.4l1.6-2.5h-13c0.5-2,2.3-3.4,4.3-3.4h7.8l1.6-2.5h-9.6
		c-3.8,0-6.9,3.2-6.9,7.2s3.1,7.2,6.9,7.2h8.2l1.6-2.5L118.6,65.2L118.6,65.2z M85.9,67.7c-3.8,0-6.9-3.2-6.9-7.2s3.1-7.2,6.9-7.2
		h9.6l-1.6,2.5h-7.8c-2.5,0-4.5,2.1-4.5,4.7c0,2.6,2,4.7,4.5,4.7h9.6l-1.6,2.5L85.9,67.7L85.9,67.7z M35.2,65.2
		c2.5,0,4.5-2.1,4.5-4.7s-2-4.7-4.5-4.7h-7.7C25,55.9,23,58,23,60.5c0,2.6,2,4.7,4.5,4.7H35.2z M27.3,67.7c-3.8,0-6.9-3.2-6.9-7.2
		s3.1-7.2,6.9-7.2h8.1c3.8,0,6.9,3.2,6.9,7.2s-3.1,7.2-6.9,7.2H27.3z M55.4,63.1c2.6,0,4.7-2.2,4.7-4.9c0-2.7-2.1-4.9-4.7-4.9H43.7
		v14.4h2.7V55.9h8.8c1.2,0,2.2,1,2.2,2.3c0,1.3-1,2.3-2.2,2.3h-7.5l8,7.2h3.9l-5.4-4.7H55.4z M99.6,65.2V53.3h-2.7v13
		c0,0.4,0.1,0.7,0.4,1c0.3,0.3,0.6,0.4,1,0.4h12.2l1.6-2.5L99.6,65.2L99.6,65.2z M66.9,62.7H74l-3.8-6.3l-6.9,11.4h-3.1l8.4-13.7
		c0.4-0.6,1-0.9,1.6-0.9c0.7,0,1.3,0.3,1.6,0.9l8.4,13.7h-3.2l-1.5-2.5h-7.2L66.9,62.7z"/>
</g>
</svg>
