<?xml version="1.0" encoding="utf-8"?>
<!-- Generator: Adobe Illustrator 20.1.0, SVG Export Plug-In . SVG Version: 6.00 Build 0)  -->
<svg version="1.1" id="Layer_1" xmlns="http://www.w3.org/2000/svg" xmlns:xlink="http://www.w3.org/1999/xlink" x="0px" y="0px"
	 viewBox="0 0 150 150" style="enable-background:new 0 0 150 150;" xml:space="preserve">
<style type="text/css">
	.st0{fill:#E12228;}
</style>
<g>
	<g>
		<path class="st0" d="M102.1,63.4c0-0.2-0.1-0.3-0.3-0.3h-6.9c-0.2,0-0.3,0.1-0.3,0.3v4.8c0,0.2,0.1,0.3,0.3,0.3h6.9
			c0.2,0,0.3-0.1,0.3-0.3V63.4z"/>
		<path class="st0" d="M101.6,69.6H88.3c-0.2,0-0.5-0.1-0.5,0.1L85.9,76l0,0v0.3l-2.1-7.1c-0.1-0.2-0.2-0.5-0.4-0.5h-5.1
			c-0.2,0-0.2,0.4-0.3,0.5l-1.8,6.6l0,0v0.3v-0.3l0,0l-1.1-3.2l-1-2.9c0-0.2-0.3-0.1-0.5-0.1H63.2v-6.2c0-0.2-0.2-0.4-0.4-0.3
			L56.1,65c-0.2,0.2-0.4,0.3-0.4,0.4v4.1h-1.5c-0.2,0-0.6-0.3-0.6-0.2v5c0,0.2,0.4,0.6,0.6,0.6h1.5v5.8c0,4.3,2.6,6.4,6.9,6.4
			c1.8,0,2.8-0.4,5-1v-0.4c0,0,0-3.7,0-4.9c0-0.2-0.3-0.3-0.5-0.3c-0.6,0.3-1.3,0.3-1.9,0.3c-1.2,0-1.8-0.5-1.8-1.8V75H67
			c0.2,0,0.5-0.4,0.5-0.6v-4.2l4.8,16.4c0.1,0.2,0.1,0.3,0.3,0.3H78c0.2,0,0.4-0.1,0.4-0.3l2.4-7.2l1.2,3.8l1.1,3.5
			c0.1,0.2,0.2,0.3,0.4,0.3h5.5c0.2,0,0.4-0.1,0.4-0.3l5.1-16.4v16.4c0,0.2,0.1,0.3,0.3,0.3h6.7c0.2,0,0.5-0.1,0.5-0.3V69.4
			C102.1,69.3,101.7,69.6,101.6,69.6z"/>
		<path class="st0" d="M110.8,63.4c0-0.2-0.1-0.3-0.3-0.3h-6.9c-0.2,0-0.3,0.1-0.3,0.3v23.1c0,0.2,0.1,0.3,0.3,0.3h6.9
			c0.2,0,0.3-0.1,0.3-0.3V63.4z"/>
		<path class="st0" d="M119.5,63.4c0-0.2-0.1-0.3-0.3-0.3h-6.9c-0.2,0-0.3,0.1-0.3,0.3v4.8c0,0.2,0.1,0.3,0.3,0.3h6.9
			c0.2,0,0.3-0.1,0.3-0.3V63.4z"/>
		<path class="st0" d="M119.5,69.9c0-0.2-0.1-0.3-0.3-0.3h-6.9c-0.2,0-0.3,0.1-0.3,0.3v16.7c0,0.2,0.1,0.3,0.3,0.3h6.9
			c0.2,0,0.3-0.1,0.3-0.3V69.9z"/>
		<path class="st0" d="M130.3,68.6c-5.8,0-9.7,4.3-9.7,9.3V78c0,5,3.9,9.2,9.7,9.2c5.8,0,9.7-4.3,9.7-9.3v-0.1
			C140,72.8,136.1,68.6,130.3,68.6z M132.4,78c0,1.7-1,3.1-2.7,3.1c-1.6,0-2.7-1.4-2.7-3.1v-0.1c0-1.7,1-3.1,2.7-3.1
			C131.3,74.8,132.4,76.2,132.4,78L132.4,78z"/>
	</g>
	<g>
		<path class="st0" d="M29.6,55.4C18.8,55.4,10,64.2,10,75s8.8,19.6,19.6,19.6S49.2,85.8,49.2,75S40.4,55.4,29.6,55.4z M29.6,89.4
			c-8,0-14.4-6.5-14.4-14.4c0-8,6.5-14.4,14.4-14.4c8,0,14.4,6.5,14.4,14.4C44,83,37.5,89.4,29.6,89.4z"/>
		<circle class="st0" cx="34.4" cy="70.1" r="4.1"/>
		<circle class="st0" cx="34.4" cy="79.9" r="4.1"/>
		<circle class="st0" cx="24.6" cy="79.9" r="4.1"/>
		<circle class="st0" cx="24.6" cy="70.1" r="4.1"/>
	</g>
</g>
</svg>
