<?xml version="1.0" encoding="utf-8"?>
<!-- Generator: Adobe Illustrator 20.1.0, SVG Export Plug-In . SVG Version: 6.00 Build 0)  -->
<svg version="1.1" id="Layer_1" xmlns="http://www.w3.org/2000/svg" xmlns:xlink="http://www.w3.org/1999/xlink" x="0px" y="0px"
	 viewBox="0 0 150 150" style="enable-background:new 0 0 150 150;" xml:space="preserve">
<style type="text/css">
	.st0{fill:#384B5D;}
</style>
<g>
	<g>
		<path class="st0" d="M80.1,89.1c-7.8,0-14.1-6.3-14.1-14.1s6.3-14.1,14.1-14.1S94.2,67.2,94.2,75S87.8,89.1,80.1,89.1z M80.1,67.1
			c-4.3,0-7.9,3.5-7.9,7.9c0,4.3,3.5,7.9,7.9,7.9c4.3,0,7.9-3.5,7.9-7.9C87.9,70.6,84.4,67.1,80.1,67.1z"/>
	</g>
	<path class="st0" d="M39.9,60.9h4.3c0.6,0,1,0.4,1,1v15c0,3.4,0.9,5.9,4.4,5.9c5.1,0,7.6-2.9,7.6-9.7V61.9c0-0.6,0.4-1,1-1h4.2
		c0.6,0,1,0.4,1,1v26.2c0,0.6-0.4,1-1,1h-4.2c-0.6,0-1-0.4-1-1v-2.6c-1.4,2.9-4.7,3.6-9.5,3.6c-6,0-8.8-3.1-8.8-10.7V61.9
		C38.8,61.4,39.3,60.9,39.9,60.9z"/>
	<g>
		<path class="st0" d="M97.4,60.9h4.2c0.6,0,1,0.4,1,1v2.6c0,0,0.9-3.6,8.6-3.7c0,0,0.1,0,0.1,0c0.6,0,1.1,0.5,1,1.1l-0.6,4.4
			c0,0.6-0.5,1-1,1c-0.2,0-0.4,0-0.6,0c-3,0-5.7,2-7,6.2c-0.4,1.4-0.6,2.9-0.6,4.6v9.9c0,0.6-0.4,1-1,1h-4.2c-0.6,0-1-0.4-1-1V61.9
			C96.4,61.4,96.8,60.9,97.4,60.9z"/>
	</g>
	<path class="st0" d="M140,74.5c-0.1-3.5-1.4-6.6-3.9-9.1c-4.6-4.9-12-5.7-17.5-2.5c-5,2.9-8,8.8-6.8,15c1,5.3,5.1,9.7,10.6,11.1
		l0,0c8.8,1.4,11.4-3.5,11.2-3.4c0.1,0,0,2.6,0,2.6c0,0.6,0.6,1,1.2,1h4.1c0.6,0,1-0.5,1-1L140,74.5C140,74.5,140,74.5,140,74.5z
		 M118,75c0-4.3,3.6-7.8,8-7.8c4.2,0,7.7,3.6,7.7,7.9c0,4.4-3.7,7.7-7.9,7.6C121.4,82.7,117.9,79.3,118,75z"/>
	<path class="st0" d="M39.4,88.4L39.4,88.4L39.4,88.4c-1.4-1.1-2-3-2.6-5.3c0-0.2-0.2-0.3-0.4-0.3l-14.5,0c-0.3,0-0.5-0.4-0.3-0.7
		L36.3,65c0.1-0.1,0.1-0.2,0.1-0.3v-2.8c0-0.1,0-0.1,0-0.2s0-0.1,0-0.2c-0.1-0.4-0.5-0.6-1.4-0.6H11.6c-0.7,0-1.3,0.6-1.3,1.3v3.7
		c0,0.7,0.6,1.3,1.3,1.3h6.5l0,0h7.1c0.3,0,0.5,0.4,0.3,0.7L12.2,83.4c-1.2,1.4-2.4,2.7-2.1,4.2c0.1,0.4,0.3,0.9,0.5,1.2
		c0.2,0.2,0.4,0.3,0.7,0.3h27.9C39.5,89.1,39.7,88.7,39.4,88.4z"/>
</g>
</svg>
